<svg xmlns="http://www.w3.org/2000/svg" width="196.844" height="20.004" viewBox="0 0 196.844 20.004">
  <g id="EMIS_logo" data-name="EMIS logo" transform="translate(98.422 10)">
    <g id="EMIS_logo-2" data-name="EMIS logo" transform="translate(-98.422 -10)">
      <path id="Path_1" data-name="Path 1" d="M0,19.2H13.911v3.867h-9.2S4.533,25.956,6.4,26.489h7.511v4.133H0Z" transform="translate(0 -10.667)" fill="#fff"/>
      <path id="Path_2" data-name="Path 2" d="M42.7.1H61.811a4.052,4.052,0,0,1,3.378,3.422V20.011H60.433V6.856c-.356-1.733-1.2-2.044-2.578-2.356H47.544V20.011H42.7Z" transform="translate(-23.722 -0.056)" fill="#fff"/>
      <rect id="Rectangle_3" data-name="Rectangle 3" width="4.533" height="11.409" transform="translate(28 8.578)" fill="#fff"/>
      <rect id="Rectangle_4" data-name="Rectangle 4" width="5.156" height="19.96" transform="translate(45.822 0.044)" fill="#fff"/>
      <path id="Path_3" data-name="Path 3" d="M126.256,0h6.267c.844,7.689,4.356,5.911,6.844,11.556,1.778,5.956-2.533,8.4-4,8.4H125.5V16.044h6.8c1.067,0,3.778-1.644-.711-6.444-2.889-2.756-5.022-4.444-5.378-9.6" transform="translate(-69.722)" fill="#fff"/>
      <path id="Path_4" data-name="Path 4" d="M201.722,8.122l-1.333.489A10.267,10.267,0,0,0,199.1,5.5l1.644.267a6.311,6.311,0,0,1,.978,2.4" transform="translate(-110.611 -3.056)" fill="#fff"/>
      <path id="Path_5" data-name="Path 5" d="M202.6,14.778V12.644h2.133l.756-1.422H202.6v-2h2.444L205.8,7.8h-2L205,5.267,203.8,4.2l-1.111,2.889.667.711h-3.378l1.067-.4a6.311,6.311,0,0,0-.978-2.4l-1.6-.267a10.311,10.311,0,0,1,1.289,3.022h-.844l-.756,1.422h3.022v1.956h-2.044l-.756,1.422h2.8v2.222h-2.622l-.756,1.467h3.378v3.422l1.511.756V16.244h2.8l.756-1.467Z" transform="translate(-109.889 -2.333)" fill="#fff"/>
      <path id="Path_6" data-name="Path 6" d="M187.344,21.756h-3.6l.489-1.511h3.733V18.6h-5.733l-.933,1.644h1.422a6.8,6.8,0,0,1-1.822,3.289l.533,1.822,1.2-1.422v3.289h5.6V22.644a.889.889,0,0,0-.889-.889m-.622,4.089h-2a.667.667,0,0,1-.667-.667V23.089h2.667Z" transform="translate(-100.5 -10.333)" fill="#fff"/>
      <path id="Path_7" data-name="Path 7" d="M187.789,5.9v4.178H180.5l.844-1.422h4.711V8.567a1.6,1.6,0,0,0-.222-.889.667.667,0,0,0-.356-.267h-4.133l.889-1.511Z" transform="translate(-100.278 -3.278)" fill="#fff"/>
      <path id="Path_8" data-name="Path 8" d="M241.822,5.344v5.822H228.8V4.544l1.333.8v4.711h1.733V9.344h-1.689l.8-.8h.889V7.878h-1.511l.756-.8h.756V6.411h-1.6l.756-.8h.844V4.367l.978.8v.444h1.644l-.8.8h-.844v.667H234.4l-.8.8h-.756v.667h1.733l-.8.8h-.933v.711h1.733V4.1l1.378.8v5.156h1.733V9.344H236l.756-.8h.933V7.878h-1.511l.756-.8h.756V6.411h-1.644l.8-.8h.844V4.367l.978.8v.444h1.644l-.756.8h-.889v.667h1.556l-.8.8h-.756v.667H240.4l-.756.8h-.978v.711H240.4V4.544Z" transform="translate(-127.111 -2.278)" fill="#fff"/>
      <path id="Path_9" data-name="Path 9" d="M241.6,21.6l-.8,1.111H226.4l.8-1.111Z" transform="translate(-125.778 -12)" fill="#fff"/>
      <path id="Path_10" data-name="Path 10" d="M226.656,30.444l-.756,1.2h3.867a1.556,1.556,0,0,0,1.244-1.2v-.222h0a1.419,1.419,0,0,0,0-.178h0a1.377,1.377,0,0,0,0-.311h0a1.244,1.244,0,0,0-.044-.222v-.178l-.089-.267-.133-.267a3.333,3.333,0,0,0-.8-.978,2.622,2.622,0,0,1-.933-1.244,4.534,4.534,0,0,1-.178-.978h-1.867c.089,1.556.756,2.044,1.6,2.889s.844,1.422.622,1.689a.578.578,0,0,1-.4.222Z" transform="translate(-125.5 -14.222)" fill="#fff"/>
      <path id="Path_11" data-name="Path 11" d="M247.389,30.5l-.8,1.156h-9.244l.8-1.156h2.978l.756-1.6h-3.467l-.756-.978h5.778V26.678h-6.711L236.5,25.7h8.4v3.2h-1.422l-.8,1.6Z" transform="translate(-131.389 -14.278)" fill="#fff"/>
      <path id="Path_12" data-name="Path 12" d="M276.844,7.856l-.533,1.467L272,10.744l.133-1.556,4.711-1.333m.267-1.467-1.422.889a21.111,21.111,0,0,0-3.511-1.333l1.422-.889a17.555,17.555,0,0,1,3.467,1.333m-.356,11.022,1.467.622a24.089,24.089,0,0,1-5.556,2.222l-.4-1.378a14.933,14.933,0,0,0,4.489-1.467m8.311,0h-2.933a48.536,48.536,0,0,1,5.111,1.956l-2.133.578a25.156,25.156,0,0,0-4.178-1.778l.978-.8H274V10.611h3.378a5.334,5.334,0,0,0-.667-.978,8.533,8.533,0,0,0,2.8-.933,3.956,3.956,0,0,0,1.689-2l1.067.933-.089.178a6.133,6.133,0,0,0,1.911,1.244,12,12,0,0,0,2.978.8l-1.644.978-.4-.133Zm-9.511-4.844h7.911v-.978h-7.911Zm0,1.911h7.911V13.5h-7.911Zm0,1.956h7.911V15.411h-7.911Zm9.156-9.422h-5.422a11.066,11.066,0,0,1-1.733,1.644l-.578-1.289a6.889,6.889,0,0,0,2.4-3.067l1.022.889L280,5.811h6.044l.444.622a10.223,10.223,0,0,1-1.689,2.4L284,7.811Zm-6.889,3.6h7.2a8.622,8.622,0,0,1-3.467-1.956,7.289,7.289,0,0,1-3.733,1.956" transform="translate(-151.111 -2.389)" fill="#fff"/>
      <path id="Path_13" data-name="Path 13" d="M322.644,8.122l-.756,1.244H315.8l.756-1.244Zm-1.378,3.467h-4.8l.756-1.244h4.8Zm-4.8,2.222.756-1.2h4.8l-.756,1.2Zm5.2,6h-4.8V14.878h4.8ZM318.911,7.767l-1.2-2.267h1.467l1.156,2.222Zm1.467,8.356h-2.267v2.4h2.311Zm2.444-9.911h7.022q-.133,4.667,0,8.667t.667,4.133q.533.133.089-.267l.089-2.311.844,1.956q-.178,2.8-1.689,2.178a1.778,1.778,0,0,1-.933-1.156,11.734,11.734,0,0,1-.489-3.022q-.133-2.089-.133-3.644t.044-4.8V7.722h-2.489v4.756H328.2l-.756,1.422h-1.6v7.289l-1.467-.8V13.9h-2.489l.756-1.467h1.689V7.678h-2.267Z" transform="translate(-175.444 -3.056)" fill="#fff"/>
      <path id="Path_14" data-name="Path 14" d="M367.956,13.978l-1.378.622-1.111-1.911v7.778l-1.556-.8V13.222a18,18,0,0,1-2.356,4.267l-.311-2.089a9.866,9.866,0,0,0,1.244-1.911,19.24,19.24,0,0,0,1.2-2.756H360.8l.756-1.467h2.311V7l-2.533.4.356-1.333a23.955,23.955,0,0,0,5.333-1.422l.178,1.511-1.822.533V9.267h2.756l-.756,1.467h-1.956v.222l1.2,1.333,1.333,1.644M376.4,15.4l-1.689.311v4.756l-1.6-.8V16.022l-5.689.933.489-1.6,5.2-.889V4.2l1.556.756V14.2l2.222-.356Zm-4.044-2.756-1.6.489a5.956,5.956,0,0,0-.978-.978,19.461,19.461,0,0,0-1.911-1.467l1.6-.489a13.422,13.422,0,0,1,2.844,2.444m.444-4.4-1.6.444a12.815,12.815,0,0,0-2.667-2.4l1.6-.444a12.178,12.178,0,0,1,2.667,2.4" transform="translate(-200.444 -2.333)" fill="#fff"/>
      <path id="Path_15" data-name="Path 15" d="M412.5,11.756l-.533,1.6-1.556.444v4.444q0,1.156-.667,1.467a7.577,7.577,0,0,1-2.8.267l.311-1.422h1.289c.222,0,.356-.089.356-.311v-4l-2.222.622.356-1.689,1.911-.444V9.356H406.5l.756-1.467h1.689V4.2l1.467.8V7.889h2.178l-.756,1.467h-1.378v2.978Zm8.311-.978.489.756a11.244,11.244,0,0,1-3.156,5.244,13.2,13.2,0,0,0,4.489,2.089l-1.689,1.111a10.756,10.756,0,0,1-4-2.133,16.178,16.178,0,0,1-4.978,2.4l-.133-1.689a11.556,11.556,0,0,0,4-1.822,13.823,13.823,0,0,1-2.622-4.356l.222-.089h-1.067l.756-1.422h3.111V8.556h-4.178l.756-1.422h3.378V4.2l1.556.756V7.089h4.311L421.3,8.556h-3.511v2.311Zm-1.378,1.467h-4.711a10.8,10.8,0,0,0,2.267,3.467,9.778,9.778,0,0,0,2.444-3.467" transform="translate(-225.833 -2.333)" fill="#fff"/>
      <rect id="Rectangle_5" data-name="Rectangle 5" width="196.844" height="20" fill="none"/>
      <rect id="Rectangle_2" data-name="Rectangle 2" width="14" height="4.449" transform="translate(0.044)" fill="#fff"/>
    </g>
  </g>
</svg>
