<svg xmlns="http://www.w3.org/2000/svg" width="20" height="17.629" viewBox="0 0 20 17.629">
  <g id="Group_5" data-name="Group 5" transform="translate(-538 -15.186)">
    <path id="eye-with-line" d="M18.521,1.478a1,1,0,0,0-1.414,0L1.48,17.107a1,1,0,1,0,1.414,1.414L18.52,2.892a1,1,0,0,0,0-1.414ZM3.108,13.5l2.56-2.56A4.18,4.18,0,0,1,5.555,10,4.379,4.379,0,0,1,10,5.691a4.59,4.59,0,0,1,.835.082l1.2-1.2A12.645,12.645,0,0,0,10,4.4C3.44,4.4,0,9.231,0,10c0,.423,1.057,2.09,3.108,3.5ZM16.9,6.505l-2.562,2.56a4.182,4.182,0,0,1,.111.935A4.376,4.376,0,0,1,10,14.307a4.613,4.613,0,0,1-.829-.081l-1.2,1.2A12.638,12.638,0,0,0,10,15.6c6.56,0,10-4.833,10-5.6,0-.424-1.056-2.09-3.1-3.495Z" transform="translate(538 14)" fill="rgba(61,61,61,0.7)"/>
    <path id="eye" d="M10,4.4C3.439,4.4,0,9.232,0,10s3.439,5.6,10,5.6S20,10.766,20,10,16.56,4.4,10,4.4Zm0,9.907A4.377,4.377,0,0,1,5.555,10,4.379,4.379,0,0,1,10,5.691,4.378,4.378,0,0,1,14.444,10,4.376,4.376,0,0,1,10,14.307ZM10,10c-.407-.447.663-2.154,0-2.154A2.155,2.155,0,1,0,12.223,10C12.223,9.453,10.346,10.379,10,10Z" transform="translate(538 14)" fill="rgba(61,61,61,0)"/>
  </g>
</svg>
