<svg xmlns="http://www.w3.org/2000/svg" width="39.696" height="36" viewBox="0 0 39.696 36">
  <path id="exclamation-triangle" d="M20.764,27.168a1.794,1.794,0,1,0,1.794,1.794A1.794,1.794,0,0,0,20.764,27.168ZM39.9,29.805,25.463,4.691a5.381,5.381,0,0,0-9.4,0L1.713,29.805a5.381,5.381,0,0,0,4.592,8.126H35.222A5.381,5.381,0,0,0,39.9,29.805Zm-3.1,3.588a1.794,1.794,0,0,1-1.579.915H6.305A1.812,1.812,0,0,1,4.727,31.6L19.077,6.485a1.794,1.794,0,0,1,3.193,0L36.711,31.6a1.794,1.794,0,0,1,.09,1.83ZM20.764,12.817a1.794,1.794,0,0,0-1.794,1.794v7.175a1.794,1.794,0,1,0,3.588,0V14.611A1.794,1.794,0,0,0,20.764,12.817Z" transform="translate(-0.961 -1.931)" fill="#f5ac72"/>
</svg>
